<?xml version="1.0" encoding="UTF-8" standalone="no"?>
<svg
   viewBox="0 0 1658.7092 365.66898"
   version="1.1"
   id="svg21"
   sodipodi:docname="git8.svg"
   inkscape:version="1.1.1 (1:1.1+202109281949+c3084ef5ed)"
   width="1658.7092"
   height="365.66898"
   xmlns:inkscape="http://www.inkscape.org/namespaces/inkscape"
   xmlns:sodipodi="http://sodipodi.sourceforge.net/DTD/sodipodi-0.dtd"
   xmlns="http://www.w3.org/2000/svg"
   xmlns:svg="http://www.w3.org/2000/svg"
   xmlns:rdf="http://www.w3.org/1999/02/22-rdf-syntax-ns#"
   xmlns:cc="http://creativecommons.org/ns#"
   xmlns:dc="http://purl.org/dc/elements/1.1/">
  <metadata
     id="metadata27">
    <rdf:RDF>
      <cc:Work
         rdf:about="">
        <dc:format>image/svg+xml</dc:format>
        <dc:type
           rdf:resource="http://purl.org/dc/dcmitype/StillImage" />
      </cc:Work>
    </rdf:RDF>
  </metadata>
  <defs
     id="defs25" />
  <sodipodi:namedview
     pagecolor="#ffffff"
     bordercolor="#666666"
     borderopacity="1"
     objecttolerance="10"
     gridtolerance="10"
     guidetolerance="10"
     inkscape:pageopacity="0"
     inkscape:pageshadow="2"
     inkscape:window-width="1848"
     inkscape:window-height="1016"
     id="namedview23"
     showgrid="false"
     inkscape:zoom="1.2268303"
     inkscape:cx="805.73493"
     inkscape:cy="253.90635"
     inkscape:window-x="72"
     inkscape:window-y="27"
     inkscape:window-maximized="1"
     inkscape:current-layer="svg21"
     inkscape:pagecheckerboard="0"
     fit-margin-top="0"
     fit-margin-left="0"
     fit-margin-right="0"
     fit-margin-bottom="0" />
  <style
     id="style2">.st0{display:none;} .st1{display:inline;} .st2{fill:#FFFFFF;} .st3{fill:none;stroke:#9882CE;stroke-width:4;stroke-miterlimit:10;} .st4{fill:#B3E3FF;stroke:#404040;stroke-width:4;stroke-miterlimit:10;} .st5{fill:#FFFFFF;stroke:#404040;stroke-width:4;stroke-miterlimit:10;} .st6{fill:none;stroke:#404040;stroke-width:4;stroke-linecap:round;stroke-linejoin:round;stroke-miterlimit:10;} .st7{fill:#B18BE8;stroke:#404040;stroke-width:4;stroke-linecap:round;stroke-linejoin:round;stroke-miterlimit:10;} .st8{fill:#404040;} .st9{fill:none;stroke:#404040;stroke-width:4;stroke-miterlimit:10;} .st10{fill:#B18BE8;stroke:#404040;stroke-width:4;stroke-miterlimit:10;} .st11{fill:#4ED1A1;stroke:#404040;stroke-width:4;stroke-miterlimit:10;} .st12{fill:none;stroke:#CCCCCC;stroke-width:7;stroke-linecap:round;stroke-linejoin:round;stroke-miterlimit:10;} .st13{fill:#FFFFFF;stroke:#CCCCCC;stroke-width:7;stroke-linecap:round;stroke-linejoin:round;stroke-miterlimit:10;} .st14{fill:none;stroke:#404040;stroke-width:7;stroke-miterlimit:10;} .st15{fill:#B3E3FF;stroke:#404040;stroke-width:7;stroke-miterlimit:10;} .st16{fill:#CCCCCC;} .st17{fill:#FFFFFF;stroke:#404040;stroke-width:4;stroke-linejoin:round;stroke-miterlimit:10;} .st18{fill:#FFFFFF;stroke:#404040;stroke-width:4;stroke-linecap:round;stroke-linejoin:round;stroke-miterlimit:10;} .st19{fill:#B3E3FF;stroke:#404040;stroke-width:4;stroke-linejoin:round;stroke-miterlimit:10;} .st20{fill:none;stroke:#CCCCCC;stroke-linecap:round;stroke-linejoin:round;stroke-miterlimit:10;} .st21{fill:#999999;} .st22{fill:#4ED1A1;stroke:#404040;stroke-width:4;stroke-linecap:round;stroke-linejoin:round;stroke-miterlimit:10;} .st23{fill:#4CD3D6;stroke:#404040;stroke-width:4;stroke-linejoin:round;stroke-miterlimit:10;} .st24{fill:none;stroke:#59AFE1;stroke-width:4;stroke-miterlimit:10;} .st25{fill:#59AFE1;stroke:#404040;stroke-width:4;stroke-linejoin:round;stroke-miterlimit:10;} .st26{fill:#FFFFFF;stroke:#59AFE1;stroke-width:4;stroke-miterlimit:10;} .st27{fill:#B3E3FF;stroke:#404040;stroke-width:4;stroke-linecap:round;stroke-linejoin:round;stroke-miterlimit:10;} .st28{fill:#FC8363;stroke:#404040;stroke-width:4;stroke-linecap:round;stroke-linejoin:round;stroke-miterlimit:10;} .st29{fill:#CCCCCC;stroke:#404040;stroke-width:4;stroke-miterlimit:10;} .st30{fill:#FFFFFF;stroke:#6693ED;stroke-width:4;stroke-miterlimit:10;} .st31{fill:none;stroke:#A97CDD;stroke-width:4;stroke-linecap:round;stroke-linejoin:round;stroke-miterlimit:10;} .st32{fill:none;stroke:#B3E3FF;stroke-width:4;stroke-linecap:round;stroke-linejoin:round;stroke-miterlimit:10;} .st33{fill:none;stroke:#4ED1A1;stroke-width:4;stroke-linecap:round;stroke-miterlimit:10;} .st34{fill:none;stroke:#4ED1A1;stroke-width:4;stroke-linecap:round;stroke-linejoin:round;stroke-miterlimit:10;} .st35{fill:#E24B88;stroke:#404040;stroke-width:4;stroke-linecap:round;stroke-linejoin:round;stroke-miterlimit:10;} .st36{fill:none;stroke:#DEEFF8;stroke-width:4;stroke-miterlimit:10;} .st37{fill:none;stroke:#CCCCCC;stroke-width:4;stroke-linecap:round;stroke-linejoin:round;} .st38{fill:none;stroke:#CCCCCC;stroke-width:4;stroke-linecap:round;stroke-linejoin:round;stroke-dasharray:0,14.3051;} .st39{fill:none;stroke:#CCCCCC;stroke-width:4;stroke-linecap:round;stroke-linejoin:round;stroke-dasharray:0,14.1689;} .st40{fill:none;stroke:#CCCCCC;stroke-width:4;stroke-linecap:round;stroke-linejoin:round;stroke-dasharray:0,13.9788;} .st41{fill:none;stroke:#CCCCCC;stroke-width:4;stroke-linecap:round;stroke-linejoin:round;stroke-dasharray:0,14.7877;} .st42{fill:none;stroke:#CCCCCC;stroke-width:4;stroke-linecap:round;stroke-linejoin:round;stroke-dasharray:0,14.9632;} .st43{fill:none;stroke:#CCCCCC;stroke-width:4;stroke-linecap:round;stroke-linejoin:round;stroke-dasharray:0,12.543;} .st44{fill:none;stroke:#CCCCCC;stroke-width:4;stroke-linecap:round;stroke-linejoin:round;stroke-dasharray:0,13.6844;} .st45{fill:none;stroke:#CCCCCC;stroke-width:4;stroke-linecap:round;stroke-linejoin:round;stroke-dasharray:0,13.7717;} .st46{fill:none;stroke:#CCCCCC;stroke-width:4;stroke-linecap:round;stroke-linejoin:round;stroke-dasharray:0,13.6492;} .st47{fill:none;stroke:#CCCCCC;stroke-width:4;stroke-linecap:round;stroke-linejoin:round;stroke-dasharray:0,13.907;} .st48{fill:#4CD3D6;stroke:#404040;stroke-width:4;stroke-linecap:round;stroke-linejoin:round;stroke-miterlimit:10;} .st49{fill:none;stroke:#CCCCCC;stroke-width:4;stroke-linecap:round;stroke-linejoin:round;stroke-dasharray:0,14.9858;} .st50{fill:none;stroke:#CCCCCC;stroke-width:4;stroke-linecap:round;stroke-linejoin:round;stroke-dasharray:0,14.0118;} .st51{fill:none;stroke:#CCCCCC;stroke-width:4;stroke-linecap:round;stroke-linejoin:round;stroke-dasharray:0,14.1243;} .st52{fill:none;} .st53{fill:#FFFFFF;stroke:#404040;stroke-width:7;stroke-linecap:round;stroke-linejoin:round;stroke-miterlimit:10;} .st54{fill:#59AFE1;stroke:#404040;stroke-width:7;stroke-linejoin:round;stroke-miterlimit:10;} .st55{fill:#E24B88;stroke:#404040;stroke-width:7;stroke-linecap:round;stroke-linejoin:round;stroke-miterlimit:10;} .st56{fill:none;stroke:#404040;stroke-width:7;stroke-linecap:round;stroke-linejoin:round;stroke-miterlimit:10;} .st57{fill:none;stroke:#CCCCCC;stroke-width:4;stroke-linecap:round;stroke-linejoin:round;stroke-miterlimit:10;} .st58{fill:#FFFFFF;stroke:#CCCCCC;stroke-width:4;stroke-linecap:round;stroke-linejoin:round;stroke-miterlimit:10;} .st59{fill:#F5F5F5;} .st60{fill:#3873AE;} .st61{fill:#75706C;} .st62{fill:none;stroke:#B3E3FF;stroke-width:4;stroke-miterlimit:10;} .st63{fill:#6F6F6F;} .st64{fill:none;stroke:#6F6F6F;stroke-width:2;stroke-miterlimit:10;} .st65{fill:none;stroke:#6F6F6F;stroke-width:3;stroke-miterlimit:10;} .st66{fill:#FFFFFF;stroke:#404040;stroke-width:6;stroke-miterlimit:10;} .st67{fill:#B3E3FF;stroke:#404040;stroke-width:6;stroke-miterlimit:10;}</style>
  <path
     style="fill:#ffffff;stroke:#404040;stroke-width:7.82427;stroke-linecap:round;stroke-linejoin:round;stroke-miterlimit:10"
     inkscape:connector-curvature="0"
     id="path4"
     d="M 17.437844,141.72141 H 1118.2348"
     class="st18" />
  <circle
     style="fill:#ffffff;stroke:#404040;stroke-width:4;stroke-linecap:round;stroke-linejoin:round;stroke-miterlimit:10"
     id="circle6"
     r="21"
     cy="141.72142"
     cx="119.87568"
     class="st18" />
  <circle
     style="fill:#ffffff;stroke:#404040;stroke-width:4;stroke-linecap:round;stroke-linejoin:round;stroke-miterlimit:10"
     id="circle8"
     r="21"
     cy="141.72142"
     cx="230.58069"
     class="st18" />
  <circle
     style="fill:#ffffff;stroke:#404040;stroke-width:4;stroke-linecap:round;stroke-linejoin:round;stroke-miterlimit:10"
     id="circle10"
     r="21"
     cy="141.72142"
     cx="340.48068"
     class="st18" />
  <circle
     style="fill:#ffffff;fill-opacity:1;stroke:#404040;stroke-width:4;stroke-linejoin:round;stroke-miterlimit:10"
     id="circle12"
     r="21"
     cy="141.72142"
     cx="450.38068"
     class="st25" />
  <path
     style="fill:#b3e3ff;stroke:#404040;stroke-width:4;stroke-linejoin:round;stroke-miterlimit:10"
     inkscape:connector-curvature="0"
     id="path14"
     d="m 1077.8693,2 h 96.2 v 50.000001 h -96.2 z"
     class="st19" />
  <path
     style="fill:#404040"
     inkscape:connector-curvature="0"
     id="path16"
     d="m 1112.5693,33.000001 v -8.3 l -3.6,8.3 h -1.3 l -3.6,-8.3 v 8.3 h -1.5 v -10.6 h 2 l 3.7,8.7 3.8,-8.7 h 2 v 10.6 z m 6.5,-4.1 1.9,-0.3 c 0.4,-0.1 0.6,-0.3 0.6,-0.5 0,-0.7 -0.5,-1.3 -1.6,-1.3 -1,0 -1.5,0.6 -1.6,1.5 l -1.4,-0.3 c 0.2,-1.4 1.4,-2.3 3,-2.3 2.2,0 3,1.2 3,2.6 v 3.6 c 0,0.6 0.1,1 0.1,1.2 h -1.4 c 0,-0.2 -0.1,-0.5 -0.1,-1 -0.3,0.5 -1,1.2 -2.3,1.2 -1.5,0 -2.4,-1 -2.4,-2.2 0,-1.3 0.9,-2 2.2,-2.2 z m 2.5,1.1 v -0.3 l -2.2,0.3 c -0.6,0.1 -1,0.4 -1,1.1 0,0.5 0.4,1 1.2,1 1,0 2,-0.6 2,-2.1 z m 4.9,0.7 c 0.1,0.8 0.7,1.3 1.7,1.3 0.8,0 1.2,-0.4 1.2,-1 0,-0.4 -0.3,-0.8 -0.9,-0.9 l -1.2,-0.3 c -1.1,-0.2 -1.8,-1 -1.8,-2 0,-1.2 1.2,-2.3 2.6,-2.3 2,0 2.6,1.3 2.7,1.9 l -1.2,0.5 c -0.1,-0.4 -0.4,-1.2 -1.5,-1.2 -0.7,0 -1.2,0.5 -1.2,1 0,0.4 0.3,0.8 0.8,0.9 l 1.2,0.3 c 1.3,0.3 2,1.1 2,2.1 0,1 -0.9,2.2 -2.6,2.2 -2,0 -2.8,-1.3 -2.9,-2.1 z m 8.8,-4.9 h 1.6 v 1.3 h -1.6 v 3.7 c 0,0.7 0.3,1 1,1 0.2,0 0.4,0 0.6,-0.1 v 1.3 c -0.1,0 -0.5,0.1 -1,0.1 -1.2,0 -2,-0.8 -2,-2.1 v -4 h -1.4 v -1.3 h 0.4 c 0.8,0 1.1,-0.5 1.1,-1.1 v -1.2 h 1.3 z m 10.4,5.2 c -0.4,1.3 -1.6,2.3 -3.2,2.3 -1.9,0 -3.6,-1.4 -3.6,-3.9 0,-2.3 1.6,-3.8 3.4,-3.8 2.2,0 3.5,1.5 3.5,3.8 v 0.4 h -5.4 c 0,1.3 1,2.2 2.2,2.2 1.2,0 1.8,-0.6 2,-1.5 z m -1.4,-2.3 c 0,-1 -0.7,-1.8 -2,-1.8 -1.2,0 -1.9,0.9 -2,1.8 z m 8,-1.4 h -0.6 c -1.2,0 -2,0.6 -2,2.2 v 3.5 h -1.4 v -7.2 h 1.4 v 1.3 c 0.5,-1.1 1.4,-1.4 2.2,-1.4 h 0.5 v 1.6 z"
     class="st8" />
  <path
     style="fill:none;stroke:#404040;stroke-width:4;stroke-linecap:round;stroke-linejoin:round;stroke-miterlimit:10"
     inkscape:connector-curvature="0"
     id="path18"
     d="M 1126.8693,97.100005 V 73.600001 m 10.9,14.8 -10.9,10.899994 -10.8,-10.899994"
     class="st6" />
  <text
     xml:space="preserve"
     style="font-style:normal;font-weight:normal;font-size:16px;line-height:1.25;font-family:sans-serif;letter-spacing:0px;word-spacing:0px;fill:#000000;fill-opacity:1;stroke:none"
     x="115.21899"
     y="147.01642"
     id="text843"><tspan
       sodipodi:role="line"
       id="tspan841"
       x="115.21899"
       y="147.01642">B</tspan></text>
  <text
     xml:space="preserve"
     style="font-style:normal;font-weight:normal;font-size:16px;line-height:1.25;font-family:sans-serif;letter-spacing:0px;word-spacing:0px;fill:#000000;fill-opacity:1;stroke:none"
     x="223.57635"
     y="146.78986"
     id="text847"><tspan
       sodipodi:role="line"
       id="tspan845"
       x="223.57635"
       y="146.78986">C</tspan></text>
  <text
     xml:space="preserve"
     style="font-style:normal;font-weight:normal;font-size:16px;line-height:1.25;font-family:sans-serif;letter-spacing:0px;word-spacing:0px;fill:#000000;fill-opacity:1;stroke:none"
     x="335.96829"
     y="147.01642"
     id="text851"><tspan
       sodipodi:role="line"
       id="tspan849"
       x="335.96829"
       y="147.01642">D</tspan></text>
  <circle
     style="fill:#ffffff;stroke:#404040;stroke-width:4;stroke-linecap:round;stroke-linejoin:round;stroke-miterlimit:10"
     id="circle6-3"
     r="21"
     cy="141.72142"
     cx="23"
     class="st18" />
  <text
     xml:space="preserve"
     style="font-style:normal;font-weight:normal;font-size:16px;line-height:1.25;font-family:sans-serif;letter-spacing:0px;word-spacing:0px;fill:#000000;fill-opacity:1;stroke:none"
     x="18.349678"
     y="147.01642"
     id="text839"><tspan
       sodipodi:role="line"
       id="tspan837"
       x="18.349678"
       y="147.01642">A</tspan></text>
  <text
     xml:space="preserve"
     style="font-style:normal;font-weight:normal;font-size:16px;line-height:1.25;font-family:sans-serif;letter-spacing:0px;word-spacing:0px;fill:#000000;fill-opacity:1;stroke:none"
     x="446.33636"
     y="147.01642"
     id="text896"><tspan
       sodipodi:role="line"
       id="tspan894"
       x="446.33636"
       y="147.01642">E</tspan></text>
  <circle
     style="fill:#59afe1;stroke:#404040;stroke-width:4;stroke-linejoin:round;stroke-miterlimit:10"
     id="circle12-6"
     r="21"
     cy="140.80296"
     cx="565.3631"
     class="st25" />
  <text
     xml:space="preserve"
     style="font-style:normal;font-weight:normal;font-size:16px;line-height:1.25;font-family:sans-serif;letter-spacing:0px;word-spacing:0px;fill:#000000;fill-opacity:1;stroke:none"
     x="560.03497"
     y="144.32951"
     id="text896-7"><tspan
       sodipodi:role="line"
       id="tspan894-5"
       x="560.03497"
       y="144.32951">F</tspan></text>
  <flowRoot
     xml:space="preserve"
     id="flowRoot960"
     style="font-style:normal;font-weight:normal;font-size:16px;line-height:1.25;font-family:sans-serif;letter-spacing:0px;word-spacing:0px;fill:#000000;fill-opacity:1;stroke:none"
     transform="translate(-100.91932,-3.37859)"><flowRegion
       id="flowRegion962"><rect
         id="rect964"
         width="14.985591"
         height="39.769451"
         x="476.65707"
         y="-19.507204" /></flowRegion><flowPara
       id="flowPara966" /></flowRoot>
  <flowRoot
     xml:space="preserve"
     id="flowRoot968"
     style="font-style:normal;font-weight:normal;font-size:16px;line-height:1.25;font-family:sans-serif;letter-spacing:0px;word-spacing:0px;fill:#000000;fill-opacity:1;stroke:none"
     transform="translate(-100.91932,-3.37859)"><flowRegion
       id="flowRegion970"><rect
         id="rect972"
         width="84.726227"
         height="73.775215"
         x="508.93372"
         y="47.927956" /></flowRegion><flowPara
       id="flowPara974" /></flowRoot>
  <circle
     style="fill:#59afe1;stroke:#404040;stroke-width:4;stroke-linejoin:round;stroke-miterlimit:10"
     id="circle12-6-8"
     r="21"
     cy="140.68506"
     cx="701.55518"
     class="st25" />
  <circle
     style="fill:#59afe1;stroke:#404040;stroke-width:4;stroke-linejoin:round;stroke-miterlimit:10"
     id="circle12-6-8-7"
     r="21"
     cy="140.68506"
     cx="852.35028"
     class="st25" />
  <path
     style="fill:none;stroke:#404040;stroke-width:4;stroke-miterlimit:10"
     inkscape:connector-curvature="0"
     id="path4-3"
     d="m 605.17632,202.22576 c 0,-22.6 -18.4,-41 -41,-41 m 41,41 c 0,22.6 18.4,41 41,41 h 22.4"
     class="st14" />
  <path
     style="fill:#ffffff;stroke:#404040;stroke-width:3.95681;stroke-linecap:round;stroke-linejoin:round;stroke-miterlimit:10"
     inkscape:connector-curvature="0"
     id="path4-36"
     d="M 696.26986,245.42651 H 977.79028"
     class="st18" />
  <circle
     style="fill:#bcd35f;stroke:#404040;stroke-width:4;stroke-linejoin:round;stroke-miterlimit:10"
     id="circle12-6-9"
     r="21"
     cy="243.38875"
     cx="685.66058"
     class="st25" />
  <circle
     style="fill:#bcd35f;stroke:#404040;stroke-width:4;stroke-linejoin:round;stroke-miterlimit:10"
     id="circle12-6-9-0"
     r="21"
     cy="245.83406"
     cx="786.73401"
     class="st25" />
  <circle
     style="fill:#bcd35f;stroke:#404040;stroke-width:4;stroke-linejoin:round;stroke-miterlimit:10"
     id="circle12-6-9-0-6"
     r="21"
     cy="243.38876"
     cx="886.17731"
     class="st25" />
  <circle
     style="fill:#bcd35f;stroke:#404040;stroke-width:4;stroke-linejoin:round;stroke-miterlimit:10"
     id="circle12-6-9-0-6-2"
     r="21"
     cy="242.57364"
     cx="979.91479"
     class="st25" />
  <path
     style="fill:#bcd35f;fill-opacity:0.690476;stroke:#404040;stroke-width:4;stroke-linejoin:round;stroke-miterlimit:10"
     inkscape:connector-curvature="0"
     id="path14-6"
     d="m 942.41118,305.60537 h 96.20002 v 50 h -96.20002 z"
     class="st19" />
  <text
     xml:space="preserve"
     style="font-style:normal;font-weight:normal;font-size:16px;line-height:1.25;font-family:sans-serif;letter-spacing:0px;word-spacing:0px;fill:#000000;fill-opacity:1;stroke:none"
     x="969.72595"
     y="332.64319"
     id="text3714"><tspan
       sodipodi:role="line"
       id="tspan3712"
       x="969.72595"
       y="332.64319">test</tspan></text>
  <path
     style="fill:none;stroke:#404040;stroke-width:4;stroke-linecap:round;stroke-linejoin:round;stroke-miterlimit:10"
     inkscape:connector-curvature="0"
     id="path18-1"
     d="m 984.34788,272.25723 v 23.5 m 10.9,-14.8 -10.9,-10.9 -10.8,10.9"
     class="st6" />
  <path
     style="fill:none;stroke:#404040;stroke-width:4.1418;stroke-miterlimit:10"
     inkscape:connector-curvature="0"
     id="path4-3-2"
     d="m 1068.7551,200.83304 c 0,-23.20586 19.2127,-42.09912 42.8109,-42.09912 m -42.8109,42.09912 c 0,23.20586 -19.2126,42.09912 -42.8108,42.09912 h -23.3893"
     class="st14" />
  <circle
     style="fill:#59afe1;stroke:#404040;stroke-width:4;stroke-linejoin:round;stroke-miterlimit:10"
     id="circle12-6-8-7-0"
     r="21"
     cy="144.34889"
     cx="1125.3064"
     class="st25" />
</svg>
